<svg id="Layer_1" data-name="Layer 1" xmlns="http://www.w3.org/2000/svg" viewBox="0 0 129.53 89.54"><defs><style>.cls-1{fill:#001f5b;}</style></defs><title>GSW_logo_solid_blue</title><rect class="cls-1" x="13.76" y="77.33" width="102.64" height="1.1"/><path class="cls-1" d="M124.94,51.35V38.88h-11.2C110.5,18.79,92.42,3.35,70.66,3.35S30.83,18.79,27.59,38.88H16.31V51.35L5.86,55.44l.26,1.26h129l.25-1.26ZM112.57,38.88h-9c-3-22.3-19.76-31.11-28.37-34.2,19.07,1.95,34.39,16.12,37.4,34.2m-10.17,0H93.12l-6.24-2.45c-1.62-17.56-7.2-26.7-12-30.68,8.4,3,24.5,11.62,27.49,33.13M70.68,4.53c4.37,1.37,12.85,9.62,15,31.44l-15.06-5.9L55.69,35.93c2.16-21.79,10.64-30,15-31.4M54.5,36.39l-6.36,2.49H39c3-21.4,18.91-30,27.35-33.08-4.73,4-10.27,13.13-11.89,30.58M66.33,4.66C57.74,7.73,40.93,16.53,37.9,38.88H28.76c3-18.14,18.43-32.34,37.58-34.22M9.59,55.39l61-23.9,61,23.9Z" transform="translate(-5.86 -3.35)"/><path class="cls-1" d="M24.87,76.94c-2.13,0-4-2.23-5.23-4.14l-.62.33,1.5,4.59A1.84,1.84,0,0,1,21.78,77c.82,0,1.93.68,3.22.68,2.54,0,4.59-2,4.59-5,0-3.74-2.64-4.54-5.23-5.46C22.92,66.76,21,65.94,21,63.89a2.91,2.91,0,0,1,2.73-3.13c2,0,3.61,2.07,4.61,3.93l.59-.33-1.35-4.14a1.24,1.24,0,0,1-1,.45,2.85,2.85,0,0,1-1.11-.28,3.68,3.68,0,0,0-1.64-.4c-2.54,0-4.35,1.84-4.35,4.8,0,6.3,8.39,3.53,8.39,9a3,3,0,0,1-3,3.18" transform="translate(-5.86 -3.35)"/><path class="cls-1" d="M34.16,77.67c2.22,0,3.8-2.3,3.8-4.75s-1.38-5-3.7-5-3.79,2.56-3.79,5.05,1.55,4.73,3.69,4.73m.1-9.15c1.64,0,2,2.64,2,4S35.9,77,34.16,77s-2-3.16-2-4.52.42-4,2.1-4" transform="translate(-5.86 -3.35)"/><path class="cls-1" d="M38.55,68.89v.46c1,0,1,.37,1.08,1.38v3.41a5.19,5.19,0,0,0,.42,2.55,2,2,0,0,0,1.8,1,3.8,3.8,0,0,0,2.64-1.57v1.36h2.6v-.56c-1.15-.15-1.15-.27-1.15-2.07V67.76l-2.55,1.13v.46c1,0,1,.37,1.09,1.38V75.3c-.53.59-1.19,1.36-2,1.36-1,0-1.37-1-1.37-2V67.76Z" transform="translate(-5.86 -3.35)"/><path class="cls-1" d="M51.33,76.66c-1,0-1-1.26-1-2.12v-5.8h2.34V68.1H50.38V64.75h-.55a4.38,4.38,0,0,1-2.14,3.53v.46h1.22v6.2c0,1.36.22,2.74,1.69,2.74a3.39,3.39,0,0,0,2.49-1.59l-.28-.38c-.42.48-.82,1-1.47,1" transform="translate(-5.86 -3.35)"/><path class="cls-1" d="M56.11,74.84V70.19a3.46,3.46,0,0,1,2.24-1.28c1.12,0,1.35,1.09,1.35,2.43v3.5c0,1.8,0,1.91-1.12,2.07v.55h3.7v-.55c-1.12-.15-1.12-.27-1.12-2.07v-3.5c0-2-.35-3.44-2.1-3.44a4.6,4.6,0,0,0-3,1.49V62.78l-2.89,1.09v.56c1.19.1,1.42,0,1.42,1.69v8.73c0,1.8,0,1.91-1.12,2.07v.55h3.72v-.55c-1.14-.15-1.14-.27-1.14-2.07" transform="translate(-5.86 -3.35)"/><path class="cls-1" d="M80.25,61v-.77H74.92V61c.6.07,1.76-.09,1.76,1.15a13.27,13.27,0,0,1-.49,2.61l-2.11,8.28L71.62,63a5.71,5.71,0,0,1-.14-1c0-1.06,1.13-1,1.8-1v-.77H67.4V61c1.21-.12,1.81.87,2.07,2.09l-2.54,9.95-2.34-9.57a7,7,0,0,1-.33-1.6c0-.9.94-.82,1.52-.87v-.77H59.91V61c2-.14,2.38,1.39,2.83,3.27L66,77.46h.66l3.28-12.75,3.2,12.75h.66L77.1,65c.53-2,.88-4.07,3.15-4" transform="translate(-5.86 -3.35)"/><path class="cls-1" d="M81.29,67.89c-2.34,0-3.82,2.52-3.82,5,0,2.62,1.7,4.8,4,4.8a3.82,3.82,0,0,0,3.24-2.26l-.28-.31a3.33,3.33,0,0,1-2.74,1.75c-2.09,0-2.57-2.78-2.57-4.65h5.66c0-2.26-1.44-4.31-3.52-4.31m1.83,3.58H79.24c0-1.3.62-2.95,2-2.95s2,1.63,1.85,2.95" transform="translate(-5.86 -3.35)"/><path class="cls-1" d="M87.16,69.82a1.32,1.32,0,0,1,1.32-1.3c1.35,0,2.35,1.4,3.17,2.6l.4-.24-1-3.12a.92.92,0,0,1-.75.44c-.47,0-1.05-.3-1.65-.3a2.67,2.67,0,0,0-2.62,2.72c0,3.47,5.19,2.39,5.19,4.86A1.53,1.53,0,0,1,89.78,77c-1.25,0-2.82-1.63-3.46-2.83l-.37.21,1,3.25a1.46,1.46,0,0,1,1-.44,1.77,1.77,0,0,1,.62.17,3.17,3.17,0,0,0,1.1.27,2.89,2.89,0,0,0,2.72-2.89c0-3.5-5.24-2.62-5.24-5" transform="translate(-5.86 -3.35)"/><path class="cls-1" d="M96.54,76.66c-1,0-1-1.26-1-2.12v-5.8h2.34V68.1H95.59V64.75H95a4.38,4.38,0,0,1-2.14,3.53v.46h1.22v6.2c0,1.36.22,2.74,1.68,2.74a3.39,3.39,0,0,0,2.49-1.59L98,75.7c-.42.48-.82,1-1.47,1" transform="translate(-5.86 -3.35)"/><path class="cls-1" d="M102.27,67.89c-2.33,0-3.82,2.52-3.82,5,0,2.62,1.7,4.8,4,4.8a3.81,3.81,0,0,0,3.24-2.26l-.28-.31a3.33,3.33,0,0,1-2.74,1.75c-2.09,0-2.57-2.78-2.57-4.65h5.66c0-2.26-1.44-4.31-3.52-4.31m1.84,3.58h-3.89c0-1.3.62-2.95,2-2.95s2,1.63,1.85,2.95" transform="translate(-5.86 -3.35)"/><path class="cls-1" d="M106.61,76.91v.56h3.69v-.56c-1.12-.15-1.12-.27-1.12-2.07v-4c.28-.54,1-1.42,1.54-1.42s.75.5,1.33.5a1,1,0,0,0,.9-1.07,1.05,1.05,0,0,0-1-1.11c-1.1,0-2.1,1.36-2.74,2.26V67.76l-2.55,1.13v.46c1,0,1,.37,1.09,1.38v4.12c0,1.8,0,1.91-1.1,2.07" transform="translate(-5.86 -3.35)"/><path class="cls-1" d="M114,76.91v.56h3.72v-.56c-1.12-.15-1.12-.27-1.12-2.07V70.17c.5-.57,1.19-1.26,1.92-1.26,1.32,0,1.39,1.43,1.39,2.58v3.35c0,1.8,0,1.91-1.15,2.07v.56h3.74v-.56c-1.12-.15-1.12-.27-1.12-2.07V71.12a3.85,3.85,0,0,0-.57-2.49,2.12,2.12,0,0,0-1.59-.74,3.81,3.81,0,0,0-2.62,1.49V67.76L114,68.89v.46c1,0,1,.37,1.09,1.38v4.12c0,1.8,0,1.91-1.14,2.07" transform="translate(-5.86 -3.35)"/><path class="cls-1" d="M21.2,88.27c-.6-.22-1.4-.58-1.4-1.49A1.26,1.26,0,0,1,21,85.4c.86,0,1.52.92,1.94,1.74l.25-.14-.57-1.83a.52.52,0,0,1-.42.2,1.17,1.17,0,0,1-.47-.13,1.49,1.49,0,0,0-.69-.18,1.88,1.88,0,0,0-1.83,2.12c0,2.78,3.53,1.56,3.53,4a1.32,1.32,0,0,1-1.28,1.4c-.9,0-1.67-1-2.2-1.83l-.26.15.63,2a.78.78,0,0,1,.53-.3c.34,0,.81.3,1.36.3a2,2,0,0,0,1.93-2.22c0-1.65-1.11-2-2.2-2.41" transform="translate(-5.86 -3.35)"/><path class="cls-1" d="M25.35,85.17l-.62,1.92.23.11a2.43,2.43,0,0,1,2-1.69c.59,0,.47.63.47,1.15V91c0,1.15-.11,1.42-.9,1.42v.34h2.66v-.34c-.8,0-.91-.27-.91-1.42V86.67c0-.52-.11-1.15.48-1.15a2.48,2.48,0,0,1,2,1.69l.22-.11-.61-1.92Z" transform="translate(-5.86 -3.35)"/><path class="cls-1" d="M37.47,92.14a6.1,6.1,0,0,1-.57-1.57l-1.57-5.65-.81.26L33,90.85c-.2.72-.43,1.58-1.17,1.59v.34H34v-.34c-.36,0-.81-.07-.81-.6a8.7,8.7,0,0,1,.34-1.41l.11-.4h2.2l.35,1.28a2.94,2.94,0,0,1,.15.66c0,.54-.55.43-.84.47v.34H38v-.34a.79.79,0,0,1-.56-.3m-3.7-2.59,1-3.49,1,3.49Z" transform="translate(-5.86 -3.35)"/><path class="cls-1" d="M39.54,85.17l-.62,1.92.23.11a2.42,2.42,0,0,1,2-1.69c.59,0,.47.63.47,1.15V91c0,1.15-.11,1.42-.9,1.42v.34h2.66v-.34c-.8,0-.91-.27-.91-1.42V86.67c0-.52-.11-1.15.48-1.15a2.48,2.48,0,0,1,2,1.69l.22-.11-.6-1.92Z" transform="translate(-5.86 -3.35)"/><path class="cls-1" d="M49.1,92.44c-.78,0-.88-.21-.88-1V89h.36c.68-.05,1.42,0,1.41,1.34h.25v-3H50c-.06,1.12-.61,1.3-1.42,1.3h-.36V86.7c0-1,.05-1.19.93-1.19,1.27,0,1.55.37,2.31,1.59l.22-.16-.6-1.78H46.57v.34c.68,0,.8.28.8,1.43V91c0,1.15-.12,1.42-.8,1.42v.34h4.63l.64-2-.2-.1c-.86,1.31-1.11,1.74-2.52,1.74" transform="translate(-5.86 -3.35)"/><path class="cls-1" d="M61.49,85.51c.67,0,.78.28.78,1.43v2.84c0,1.41-.16,2.7-1.59,2.69s-1.58-1.24-1.58-2.61V86.94c0-1.14.11-1.43.83-1.43v-.34H57.48v.34c.65,0,.76.28.76,1.43v3.51c0,1.61.87,2.45,2.18,2.45,1.53,0,2.23-.9,2.23-2.74V86.94c0-1.14.11-1.43.8-1.43v-.34h-2Z" transform="translate(-5.86 -3.35)"/><path class="cls-1" d="M69.49,85.51c.69,0,.8.28.8,1.43v3.9l-3.34-5.67h-1.5v.34c.69,0,.81.28.81,1.43V91c0,1.15-.12,1.42-.81,1.42v.34h2v-.34c-.69,0-.8-.27-.8-1.42V86.45l3.74,6.33h.29V86.94c0-1.14.12-1.43.8-1.43v-.34h-2Z" transform="translate(-5.86 -3.35)"/><path class="cls-1" d="M73.59,85.51c.69,0,.81.28.81,1.43V91c0,1.15-.12,1.42-.81,1.42v.34h2.49v-.34c-.7,0-.82-.27-.82-1.42V86.94c0-1.14.12-1.43.82-1.43v-.34H73.59Z" transform="translate(-5.86 -3.35)"/><path class="cls-1" d="M81.63,85.51c.29.06.72,0,.72.5a6.7,6.7,0,0,1-.29,1.34L81,91.09l-1.21-4.24a4,4,0,0,1-.21-.9c0-.45.43-.43.71-.43v-.34H77.64v.34a1.27,1.27,0,0,1,.75.14,1.78,1.78,0,0,1,.41.95l1.78,6.18h.29l1.64-5.53a4.31,4.31,0,0,1,.62-1.53.89.89,0,0,1,.65-.21v-.34H81.63Z" transform="translate(-5.86 -3.35)"/><path class="cls-1" d="M87.89,92.44c-.78,0-.88-.21-.88-1V89h.36c.68-.05,1.42,0,1.41,1.34H89v-3h-.24c-.06,1.12-.61,1.3-1.42,1.3H87V86.7c0-1,.05-1.19.93-1.19,1.27,0,1.55.37,2.31,1.59l.22-.16-.6-1.78H85.35v.34c.68,0,.8.28.8,1.43V91c0,1.15-.12,1.42-.8,1.42v.34H90l.64-2-.21-.1c-.86,1.31-1.11,1.74-2.52,1.74" transform="translate(-5.86 -3.35)"/><path class="cls-1" d="M97,91.46,95.81,89a1.91,1.91,0,0,0,1.62-1.9c0-1.48-1.29-1.9-2.3-1.9H92.59v.34c.85,0,.8.6.8,1.45V91c0,1.15-.12,1.42-.8,1.42v.34h2.46v-.34c-.68,0-.8-.27-.8-1.42V89.07h.61l1.77,3.71h1.43v-.34c-.7,0-.77-.31-1.1-1M94.7,88.72h-.45V86.65c0-.78,0-1.13.74-1.13a1.49,1.49,0,0,1,1.54,1.56,1.61,1.61,0,0,1-1.83,1.65" transform="translate(-5.86 -3.35)"/><path class="cls-1" d="M101.78,88.27c-.6-.22-1.4-.58-1.4-1.49a1.26,1.26,0,0,1,1.15-1.38c.86,0,1.52.92,1.94,1.74l.25-.14-.57-1.83a.51.51,0,0,1-.42.2,1.17,1.17,0,0,1-.47-.13,1.47,1.47,0,0,0-.69-.18,1.87,1.87,0,0,0-1.83,2.12c0,2.78,3.53,1.56,3.53,4a1.31,1.31,0,0,1-1.28,1.4c-.9,0-1.67-1-2.2-1.83l-.26.15.63,2a.77.77,0,0,1,.53-.3c.34,0,.81.3,1.35.3A2,2,0,0,0,104,90.68c0-1.65-1.11-2-2.2-2.41" transform="translate(-5.86 -3.35)"/><path class="cls-1" d="M105.93,85.51c.69,0,.81.28.81,1.43V91c0,1.15-.12,1.42-.81,1.42v.34h2.49v-.34c-.7,0-.82-.27-.82-1.42V86.94c0-1.14.12-1.43.82-1.43v-.34h-2.49Z" transform="translate(-5.86 -3.35)"/><path class="cls-1" d="M110.45,85.17l-.62,1.92.23.11a2.43,2.43,0,0,1,2-1.69c.59,0,.48.63.48,1.15V91c0,1.15-.11,1.42-.9,1.42v.34h2.66v-.34c-.8,0-.9-.27-.9-1.42V86.67c0-.52-.11-1.15.47-1.15a2.48,2.48,0,0,1,2,1.69l.22-.11-.6-1.92Z" transform="translate(-5.86 -3.35)"/><path class="cls-1" d="M121.71,86.78c.29-.63.53-1.32,1.23-1.27v-.34H120.8v.34c.28,0,.72,0,.72.45a2.48,2.48,0,0,1-.32.93l-1,2.19L119,86.56a2.57,2.57,0,0,1-.25-.68c0-.41.53-.36.75-.36v-.34H117v.34c.67,0,1,.79,1.23,1.37l1.39,3V91c0,1.15-.11,1.42-.83,1.42v.34h2.5v-.34c-.71,0-.82-.27-.82-1.42V89.5Z" transform="translate(-5.86 -3.35)"/><path class="cls-1" d="M48.09,50.08c.91,0,1.23.12,1.23,1.29,0,1.38-.36,2.36-1.62,2.36-1.78,0-2.58-2.47-2.58-4.27s.57-5,2.5-5c1.15,0,2,1.11,2.55,2.18l.32-.17L49.75,44a1.55,1.55,0,0,1-.85.31c-.4,0-.88-.24-1.5-.24-2.28,0-3.56,2.83-3.56,5.28,0,2.64,1.29,4.83,3.63,4.83.93,0,1.61-.5,2.37-.5a1.37,1.37,0,0,1,.47.11v-2c0-1,0-1.68,1-1.72v-.44H48.09Z" transform="translate(-5.86 -3.35)"/><path class="cls-1" d="M56.24,53.58c-1,0-1.14-.27-1.14-1.35v-3.1h.46c.88-.07,1.84,0,1.83,1.73h.32V47H57.4c-.08,1.45-.79,1.68-1.84,1.68H55.1V46.18c0-1.31.07-1.53,1.2-1.53,1.63,0,2,.48,3,2.05l.28-.2-.78-2.29H53v.44c.88,0,1,.36,1,1.84v5.26c0,1.49-.15,1.84-1,1.84V54h6l.83-2.55-.27-.13c-1.11,1.69-1.44,2.24-3.25,2.24" transform="translate(-5.86 -3.35)"/><path class="cls-1" d="M65.23,44.07c-2.29,0-3.63,2.51-3.63,5.05s1.28,5.05,3.59,5.05,3.64-2.37,3.64-5-1.28-5.13-3.61-5.13m0,9.66c-1.83,0-2.31-3-2.31-4.67s.5-4.56,2.35-4.56,2.32,2.84,2.32,4.58-.45,4.64-2.36,4.64" transform="translate(-5.86 -3.35)"/><path class="cls-1" d="M70.57,44.65c1.09,0,1,.78,1,1.86v5.23c0,1.49-.16,1.84-1,1.84V54h3.17v-.44c-.88,0-1-.35-1-1.84v-2.5h.79L75.78,54h1.85v-.44c-.9,0-1-.4-1.41-1.26l-1.49-3.2a2.47,2.47,0,0,0,2.09-2.45c0-1.92-1.67-2.45-3-2.45H70.57Zm2.14,1.46c0-1,0-1.46,1-1.46a1.92,1.92,0,0,1,2,2,2.08,2.08,0,0,1-2.36,2.13h-.58Z" transform="translate(-5.86 -3.35)"/><path class="cls-1" d="M82.53,54.17c.94,0,1.61-.49,2.37-.49a1.37,1.37,0,0,1,.47.11v-2c0-1,0-1.68,1-1.72v-.44H83.15v.44c.91,0,1.23.12,1.23,1.29,0,1.38-.35,2.36-1.62,2.36-1.78,0-2.58-2.47-2.58-4.26s.57-5,2.51-5c1.14,0,2,1.11,2.55,2.19l.32-.18L84.81,44a1.55,1.55,0,0,1-.85.31c-.4,0-.88-.24-1.5-.24-2.28,0-3.56,2.83-3.56,5.28,0,2.64,1.29,4.83,3.63,4.83" transform="translate(-5.86 -3.35)"/><path class="cls-1" d="M91.22,53.58c-.9,0-1.06-.35-1.06-1.84V46.49c0-1.47.15-1.84,1.06-1.84v-.44H88v.44c.89,0,1,.36,1,1.84v5.26c0,1.49-.15,1.84-1,1.84V54h3.2Z" transform="translate(-5.86 -3.35)"/><path class="cls-1" d="M95.11,53.58c-.46,0-1-.09-1-.78A11,11,0,0,1,94.5,51l.14-.51h2.84l.46,1.65a3.86,3.86,0,0,1,.19.86c0,.7-.7.56-1.08.6V54h3.27v-.44a1,1,0,0,1-.72-.39,8,8,0,0,1-.74-2l-2-7.29-1,.33-2,7.32c-.25.93-.56,2-1.51,2.05V54h2.85Zm1-8.23,1.25,4.51H94.83Z" transform="translate(-5.86 -3.35)"/><path class="cls-1" d="M123.86,91.34a.41.41,0,0,0-.41-.4h-.59v1.34h.26v-.54h.19l.26.54h.29l-.27-.57a.4.4,0,0,0,.27-.37m-.41.14h-.33v-.29h.33a.15.15,0,1,1,0,.29" transform="translate(-5.86 -3.35)"/><path class="cls-1" d="M123.36,90.44a1.17,1.17,0,1,0,1.21,1.17,1.19,1.19,0,0,0-1.21-1.17m0,2.09a.92.92,0,1,1,1-.92.94.94,0,0,1-1,.92" transform="translate(-5.86 -3.35)"/></svg>