<svg id="Layer_1" data-name="Layer 1" xmlns="http://www.w3.org/2000/svg" viewBox="0 0 150.36 112"><defs><style>.cls-1{fill:#1c3f7b;}.cls-2{fill:#c9920e;}.cls-3{fill:#fff;}</style></defs><title>logo_blue_back</title><rect class="cls-1" width="150.36" height="112"/><rect class="cls-2" x="23.61" y="88.72" width="102.5" height="1.1"/><path class="cls-3" d="M124,52V39.1H112.8a43.52,43.52,0,0,0-86,0H15.6V52L5.1,56.2l.3,1.3H134.2l.3-1.3ZM111.7,39.1h-9C99.7,16,83,6.8,74.4,3.6A42.45,42.45,0,0,1,111.7,39.1Zm-10.2,0H92.2L86,36.5C84.4,18.3,78.8,8.8,74.1,4.7,82.5,7.9,98.5,16.8,101.5,39.1ZM69.9,3.4c4.4,1.4,12.8,10,15,32.6l-15-6.1L54.9,36C57,13.4,65.5,4.9,69.9,3.4ZM53.7,36.5l-6.4,2.6H38.2C41.2,16.9,57.1,8,65.6,4.8,60.8,8.9,55.3,18.4,53.7,36.5ZM65.5,3.6C56.9,6.8,40.1,15.9,37.1,39.1H28A42.46,42.46,0,0,1,65.5,3.6ZM8.9,56.2c1-.4,60.7-24.7,60.9-24.8.2.1,59.9,24.4,60.9,24.8Z" transform="translate(4.71 6.32)"/><path class="cls-3" d="M24.1,78.5c-2.1,0-4-2.3-5.2-4.3l-.6.3,1.5,4.8a1.69,1.69,0,0,1,1.2-.7c.8,0,1.9.7,3.2.7,2.5,0,4.6-2.1,4.6-5.2,0-3.9-2.6-4.7-5.2-5.7-1.4-.5-3.3-1.4-3.3-3.5A3,3,0,0,1,23,61.7c2,0,3.6,2.1,4.6,4.1l.6-.3-1.4-4.3a1.39,1.39,0,0,1-1,.5,2.61,2.61,0,0,1-1.1-.3,3.17,3.17,0,0,0-1.6-.4c-2.5,0-4.3,1.9-4.3,5,0,6.5,8.4,3.7,8.4,9.3A3.14,3.14,0,0,1,24.1,78.5Z" transform="translate(4.71 6.32)"/><path class="cls-3" d="M33.4,79.3c2.2,0,3.8-2.4,3.8-4.9s-1.4-5.2-3.7-5.2-3.8,2.7-3.8,5.2S31.3,79.3,33.4,79.3Zm.1-9.5c1.6,0,2,2.7,2,4.2s-.4,4.6-2.1,4.6-2-3.3-2-4.7S31.8,69.8,33.5,69.8Z" transform="translate(4.71 6.32)"/><path class="cls-3" d="M37.8,70.2v.5c1,0,1,.4,1.1,1.4v3.5a5.49,5.49,0,0,0,.4,2.6,2,2,0,0,0,1.8,1,3.86,3.86,0,0,0,2.6-1.6V79h2.6v-.6c-1.1-.2-1.1-.3-1.1-2.1V69l-2.6,1.2v.5c1,0,1,.4,1.1,1.4v4.7c-.5.6-1.2,1.4-2,1.4-1,0-1.4-1.1-1.4-2.1V69Z" transform="translate(4.71 6.32)"/><path class="cls-3" d="M50.5,78.2c-1,0-.9-1.3-.9-2.2V70h2.3v-.7H49.6V65.8H49a4.71,4.71,0,0,1-2.1,3.7V70h1.2v6.4c0,1.4.2,2.8,1.7,2.8a3.66,3.66,0,0,0,2.5-1.6l-.3-.4C51.6,77.7,51.2,78.2,50.5,78.2Z" transform="translate(4.71 6.32)"/><path class="cls-3" d="M55.3,76.3V71.5a3.63,3.63,0,0,1,2.2-1.3c1.1,0,1.3,1.1,1.3,2.5v3.6c0,1.9,0,2-1.1,2.1V79h3.7v-.6c-1.1-.2-1.1-.3-1.1-2.1V72.7c0-2.1-.3-3.6-2.1-3.6a4.8,4.8,0,0,0-3,1.5V63.8L52.4,65v.6c1.2.1,1.4,0,1.4,1.7v9.1c0,1.9,0,2-1.1,2.1v.6h3.7v-.6C55.3,78.3,55.3,78.2,55.3,76.3Z" transform="translate(4.71 6.32)"/><path class="cls-3" d="M79.4,62v-.8H74.1V62c.6.1,1.8-.1,1.8,1.2a12.82,12.82,0,0,1-.5,2.7l-2.1,8.6L70.8,64.1a3.4,3.4,0,0,1-.1-1c0-1.1,1.1-1,1.8-1v-.8H66.6V62c1.2-.1,1.8.9,2.1,2.2L66.2,74.5l-2.3-9.9a8.59,8.59,0,0,1-.3-1.7c0-.9.9-.9,1.5-.9v-.8H59.2V62c2-.1,2.4,1.4,2.8,3.4l3.2,13.7h.7l3.3-13.2,3.2,13.2h.7l3.3-12.9C76.8,64.1,77.1,61.9,79.4,62Z" transform="translate(4.71 6.32)"/><path class="cls-3" d="M80.4,69.1c-2.3,0-3.8,2.6-3.8,5.2s1.7,5,4,5A3.81,3.81,0,0,0,83.8,77l-.3-.3a3.29,3.29,0,0,1-2.7,1.8c-2.1,0-2.6-2.9-2.6-4.8H84C84,71.3,82.5,69.1,80.4,69.1Zm1.9,3.7H78.4c0-1.4.6-3.1,2-3.1S82.4,71.5,82.3,72.8Z" transform="translate(4.71 6.32)"/><path class="cls-3" d="M86.3,71.1a1.42,1.42,0,0,1,1.3-1.4c1.3,0,2.3,1.4,3.2,2.7l.4-.3-1-3.2a.89.89,0,0,1-.8.5c-.5,0-1-.3-1.6-.3a2.69,2.69,0,0,0-2.6,2.8c0,3.6,5.2,2.5,5.2,5a1.56,1.56,0,0,1-1.5,1.6c-1.3,0-2.8-1.7-3.4-2.9l-.4.2,1,3.4a1.39,1.39,0,0,1,1-.5,1.42,1.42,0,0,1,.6.2,4.51,4.51,0,0,0,1.1.3,3,3,0,0,0,2.7-3C91.5,72.6,86.3,73.6,86.3,71.1Z" transform="translate(4.71 6.32)"/><path class="cls-3" d="M95.7,78.2c-1,0-.9-1.3-.9-2.2V70h2.3v-.7H94.8V65.8h-.5a4.71,4.71,0,0,1-2.1,3.7V70h1.2v6.4c0,1.4.2,2.8,1.7,2.8a3.47,3.47,0,0,0,2.5-1.6l-.3-.4C96.7,77.7,96.3,78.2,95.7,78.2Z" transform="translate(4.71 6.32)"/><path class="cls-3" d="M101.4,69.1c-2.3,0-3.8,2.6-3.8,5.2s1.7,5,4,5a3.81,3.81,0,0,0,3.2-2.3l-.3-.3a3.16,3.16,0,0,1-2.7,1.8c-2.1,0-2.6-2.9-2.6-4.8h5.6C104.9,71.3,103.5,69.1,101.4,69.1Zm1.8,3.7H99.3c0-1.4.6-3.1,2-3.1S103.3,71.5,103.2,72.8Z" transform="translate(4.71 6.32)"/><path class="cls-3" d="M105.7,78.5v.6h3.7v-.6c-1.1-.2-1.1-.3-1.1-2.1V72.3c.3-.6.9-1.5,1.5-1.5s.8.5,1.3.5.9-.5.9-1.1a1.13,1.13,0,0,0-1-1.2c-1.1,0-2.1,1.4-2.7,2.3V69l-2.5,1.2v.5c1,0,1,.4,1.1,1.4v4.3C106.8,78.2,106.8,78.3,105.7,78.5Z" transform="translate(4.71 6.32)"/><path class="cls-3" d="M113.1,78.5v.6h3.7v-.6c-1.1-.2-1.1-.3-1.1-2.1V71.6c.5-.6,1.2-1.3,1.9-1.3,1.3,0,1.4,1.5,1.4,2.7v3.5c0,1.9,0,2-1.2,2.1v.6h3.7v-.6c-1.1-.2-1.1-.3-1.1-2.1V72.6a4,4,0,0,0-.6-2.6,2.09,2.09,0,0,0-1.6-.8,3.72,3.72,0,0,0-2.6,1.5V69l-2.5,1.2v.5c1,0,1,.4,1.1,1.4v4.3C114.2,78.2,114.2,78.3,113.1,78.5Z" transform="translate(4.71 6.32)"/><path class="cls-3" d="M20.5,90.3c-.6-.2-1.4-.6-1.4-1.5a1.27,1.27,0,0,1,1.1-1.4c.9,0,1.5.9,1.9,1.8l.3-.2-.6-2a.76.76,0,0,1-.4.2c-.2,0-.3-.1-.5-.1a1.85,1.85,0,0,0-.7-.2c-1.1,0-1.8.8-1.8,2.2,0,2.9,3.5,1.6,3.5,4.1a1.38,1.38,0,0,1-1.3,1.5c-.9,0-1.7-1-2.2-1.9l-.2.2.6,2.1a.55.55,0,0,1,.5-.3,10.63,10.63,0,0,0,1.4.3c1.1,0,1.9-.9,1.9-2.3C22.7,91,21.5,90.7,20.5,90.3Z" transform="translate(4.71 6.32)"/><path class="cls-3" d="M24.6,87,24,89l.2.1c.4-.9,1.1-1.8,2-1.8.6,0,.5.7.5,1.2V93c0,1.2-.1,1.5-.9,1.5v.4h2.7v-.4c-.8,0-.9-.3-.9-1.5V88.5c0-.5-.1-1.2.5-1.2.9,0,1.6.8,2,1.8l.2-.1-.6-2Z" transform="translate(4.71 6.32)"/><path class="cls-3" d="M36.7,94.3a7.58,7.58,0,0,1-.6-1.6l-1.6-5.9-.7.2-1.6,5.9c-.2.7-.4,1.6-1.2,1.6v.4h2.2v-.4c-.4,0-.8-.1-.8-.6,0-.3.3-1.2.3-1.5l.1-.4H35l.4,1.3a1.7,1.7,0,0,1,.1.7c0,.6-.5.5-.8.5v.4h2.5v-.4A.65.65,0,0,1,36.7,94.3ZM33,91.6,34,88l1,3.6Z" transform="translate(4.71 6.32)"/><path class="cls-3" d="M38.8,87l-.6,2,.2.1c.4-.9,1.1-1.8,2-1.8.6,0,.5.7.5,1.2V93c0,1.2-.1,1.5-.9,1.5v.4h2.7v-.4c-.8,0-.9-.3-.9-1.5V88.5c0-.5-.1-1.2.5-1.2.9,0,1.6.8,2,1.8l.2-.1-.6-2Z" transform="translate(4.71 6.32)"/><path class="cls-3" d="M48.3,94.6c-.8,0-.9-.2-.9-1.1V91h.4c.7-.1,1.4,0,1.4,1.4h.3V89.3h-.2c-.1,1.2-.6,1.3-1.4,1.3h-.4v-2c0-1.1.1-1.2.9-1.2,1.3,0,1.6.4,2.3,1.6l.2-.2L50.3,87H45.8v.4c.7,0,.8.3.8,1.5v4.2c0,1.2-.1,1.5-.8,1.5V95h4.6l.6-2-.2-.1C50,94.1,49.7,94.6,48.3,94.6Z" transform="translate(4.71 6.32)"/><path class="cls-3" d="M60.7,87.4c.7,0,.8.3.8,1.5v2.9c0,1.5-.2,2.8-1.6,2.8s-1.6-1.3-1.6-2.7v-3c0-1.2.1-1.5.8-1.5V87H56.7v.4c.6,0,.8.3.8,1.5v3.6c0,1.7.9,2.5,2.2,2.5,1.5,0,2.2-.9,2.2-2.8V88.9c0-1.2.1-1.5.8-1.5V87h-2Z" transform="translate(4.71 6.32)"/><path class="cls-3" d="M68.7,87.4c.7,0,.8.3.8,1.5v4L66.1,87H64.6v.4c.7,0,.8.3.8,1.5v4.2c0,1.2-.1,1.5-.8,1.5V95h2v-.4c-.7,0-.8-.3-.8-1.5V88.4L69.5,95h.3V88.9c0-1.2.1-1.5.8-1.5V87h-2v.4Z" transform="translate(4.71 6.32)"/><path class="cls-3" d="M72.8,87.4c.7,0,.8.3.8,1.5v4.2c0,1.2-.1,1.5-.8,1.5V95h2.5v-.4c-.7,0-.8-.3-.8-1.5V88.9c0-1.2.1-1.5.8-1.5V87H72.8Z" transform="translate(4.71 6.32)"/><path class="cls-3" d="M80.8,87.4c.3.1.7,0,.7.5a7,7,0,0,1-.3,1.4l-1.1,3.9-1.2-4.4a2.92,2.92,0,0,1-.2-.9c0-.5.4-.4.7-.4V87H76.8v.4a1.7,1.7,0,0,1,.7.1,1.88,1.88,0,0,1,.4,1l1.8,6.4H80l1.6-5.7a4.42,4.42,0,0,1,.6-1.6.73.73,0,0,1,.6-.2V87H80.7v.4Z" transform="translate(4.71 6.32)"/><path class="cls-3" d="M87,94.6c-.8,0-.9-.2-.9-1.1V91h.4c.7-.1,1.4,0,1.4,1.4h.2V89.3h-.2c-.1,1.2-.6,1.3-1.4,1.3h-.4v-2c0-1.1.1-1.2.9-1.2,1.3,0,1.6.4,2.3,1.6l.2-.2L89,87H84.5v.4c.7,0,.8.3.8,1.5v4.2c0,1.2-.1,1.5-.8,1.5V95h4.6l.6-2-.2-.1C88.7,94.1,88.4,94.6,87,94.6Z" transform="translate(4.71 6.32)"/><path class="cls-3" d="M96.1,93.6,94.9,91a2,2,0,0,0,1.6-2,2.06,2.06,0,0,0-2.3-2H91.7v.4c.8,0,.8.6.8,1.5v4.2c0,1.2-.1,1.5-.8,1.5V95h2.5v-.4c-.7,0-.8-.3-.8-1.5v-2H94l1.8,3.8h1.4v-.4C96.5,94.6,96.4,94.3,96.1,93.6Zm-2.3-2.9h-.4V88.5c0-.8,0-1.2.7-1.2a1.5,1.5,0,0,1,1.5,1.6A1.55,1.55,0,0,1,93.8,90.7Z" transform="translate(4.71 6.32)"/><path class="cls-3" d="M100.9,90.3c-.6-.2-1.4-.6-1.4-1.5a1.27,1.27,0,0,1,1.1-1.4c.9,0,1.5.9,1.9,1.8l.2-.2-.6-1.9a.76.76,0,0,1-.4.2c-.2,0-.3-.1-.5-.1a1.85,1.85,0,0,0-.7-.2c-1.1,0-1.8.8-1.8,2.2,0,2.9,3.5,1.6,3.5,4.1a1.38,1.38,0,0,1-1.3,1.5c-.9,0-1.7-1-2.2-1.9V93l.6,2.1a.55.55,0,0,1,.5-.3,10.63,10.63,0,0,0,1.4.3c1.1,0,1.9-.9,1.9-2.3C103.1,91,102,90.7,100.9,90.3Z" transform="translate(4.71 6.32)"/><path class="cls-3" d="M105.1,87.4c.7,0,.8.3.8,1.5v4.2c0,1.2-.1,1.5-.8,1.5V95h2.5v-.4c-.7,0-.8-.3-.8-1.5V88.9c0-1.2.1-1.5.8-1.5V87h-2.5Z" transform="translate(4.71 6.32)"/><path class="cls-3" d="M109.6,87l-.6,2,.2.1c.4-.9,1.1-1.8,2-1.8.6,0,.5.7.5,1.2V93c0,1.2-.1,1.5-.9,1.5v.4h2.7v-.4c-.8,0-.9-.3-.9-1.5V88.5c0-.5-.1-1.2.5-1.2.9,0,1.6.8,2,1.8l.2-.1-.6-2Z" transform="translate(4.71 6.32)"/><path class="cls-3" d="M120.8,88.7c.3-.7.5-1.4,1.2-1.3V87h-2.1v.4c.3,0,.7,0,.7.5a3.81,3.81,0,0,1-.3,1l-1,2.3-1.2-2.6a2.12,2.12,0,0,1-.3-.7c0-.4.5-.4.8-.4V87h-2.5v.4c.7,0,1,.8,1.2,1.4l1.4,3.1v1.2c0,1.2-.1,1.5-.8,1.5V95h2.5v-.4c-.7,0-.8-.3-.8-1.5V91.5Z" transform="translate(4.71 6.32)"/><path class="cls-3" d="M47.3,50.7c.9,0,1.2.1,1.2,1.3,0,1.4-.4,2.4-1.6,2.4-1.8,0-2.6-2.6-2.6-4.4s.6-5.1,2.5-5.1c1.1,0,2,1.2,2.5,2.3l.3-.2L49,44.4a1.33,1.33,0,0,1-.8.3c-.4,0-.9-.2-1.5-.2-2.3,0-3.6,2.9-3.6,5.5s1.3,5,3.6,5c.9,0,1.6-.5,2.4-.5.2,0,.3.1.5.1V52.5c0-1,0-1.7,1-1.8v-.5H47.4v.5Z" transform="translate(4.71 6.32)"/><path class="cls-3" d="M55.4,54.3c-1,0-1.1-.3-1.1-1.4V49.7h.5c.9-.1,1.8,0,1.8,1.8h.3v-4h-.3c-.1,1.5-.8,1.7-1.8,1.7h-.5V46.6c0-1.4.1-1.6,1.2-1.6,1.6,0,2,.5,3,2.1l.3-.2L58,44.6H52.2V45c.9,0,1,.4,1,1.9v5.4c0,1.5-.2,1.9-1,1.9v.5h6l.8-2.6-.3-.1C57.6,53.7,57.3,54.3,55.4,54.3Z" transform="translate(4.71 6.32)"/><path class="cls-3" d="M64.4,44.4c-2.3,0-3.6,2.6-3.6,5.2s1.3,5.2,3.6,5.2S68,52.3,68,49.6C68,47.1,66.7,44.4,64.4,44.4Zm0,10.1c-1.8,0-2.3-3.1-2.3-4.8s.5-4.7,2.3-4.7,2.3,2.9,2.3,4.8C66.7,51.5,66.3,54.5,64.4,54.5Z" transform="translate(4.71 6.32)"/><path class="cls-3" d="M69.7,45c1.1,0,1,.8,1,1.9v5.4c0,1.5-.2,1.9-1,1.9v.5h3.2v-.5c-.9,0-1-.4-1-1.9V49.7h.8l2.3,5h1.8v-.5c-.9,0-1-.4-1.4-1.3l-1.5-3.3A2.5,2.5,0,0,0,76,47.1c0-2-1.7-2.5-3-2.5H69.7Zm2.2,1.6c0-1,0-1.5,1-1.5a2,2,0,0,1,2,2.1,2.09,2.09,0,0,1-2.4,2.2h-.6Z" transform="translate(4.71 6.32)"/><path class="cls-3" d="M81.7,54.9c.9,0,1.6-.5,2.4-.5.2,0,.3.1.5.1V52.4c0-1,0-1.7,1-1.8v-.5H82.4v.5c.9,0,1.2.1,1.2,1.3,0,1.4-.4,2.4-1.6,2.4-1.8,0-2.6-2.6-2.6-4.4s.6-5.1,2.5-5.1c1.1,0,2,1.2,2.5,2.3l.3-.2L84,44.4a1.33,1.33,0,0,1-.8.3c-.4,0-.9-.2-1.5-.2-2.3,0-3.6,2.9-3.6,5.5S79.4,54.9,81.7,54.9Z" transform="translate(4.71 6.32)"/><path class="cls-3" d="M90.4,54.3c-.9,0-1.1-.4-1.1-1.9V47c0-1.5.2-1.9,1.1-1.9v-.5H87.2V45c.9,0,1,.4,1,1.9v5.4c0,1.5-.2,1.9-1,1.9v.5h3.2Z" transform="translate(4.71 6.32)"/><path class="cls-3" d="M94.2,54.3c-.5,0-1-.1-1-.8a12.86,12.86,0,0,1,.4-1.9l.1-.5h2.8l.5,1.7a2.92,2.92,0,0,1,.2.9c0,.7-.7.6-1.1.6v.5h3.3v-.5a.75.75,0,0,1-.7-.4,7.42,7.42,0,0,1-.7-2.1l-2-7.6-1,.3-2,7.6c-.3,1-.6,2.1-1.5,2.1v.5h2.8v-.4Zm1-8.5,1.2,4.7H94Z" transform="translate(4.71 6.32)"/><path class="cls-3" d="M122.9,93.4a.43.43,0,0,0-.4-.4h-.6v1.4h.3v-.6h.2l.3.6h.3l-.3-.6C122.8,93.8,122.9,93.6,122.9,93.4Zm-.4.2h-.3v-.3h.3a.22.22,0,0,1,.2.2A.35.35,0,0,1,122.5,93.6Z" transform="translate(4.71 6.32)"/><path class="cls-3" d="M122.4,92.5a1.2,1.2,0,1,0,1.2,1.2A1.1,1.1,0,0,0,122.4,92.5Zm0,2.2a1,1,0,1,1,1-1A1,1,0,0,1,122.4,94.7Z" transform="translate(4.71 6.32)"/></svg>